<?xml version="1.0" standalone="no"?>
<!DOCTYPE svg PUBLIC "-//W3C//DTD SVG 20010904//EN"
 "http://www.w3.org/TR/2001/REC-SVG-20010904/DTD/svg10.dtd">
<svg version="1.0" xmlns="http://www.w3.org/2000/svg"
 width="256.000000pt" height="256.000000pt" viewBox="0 0 256.000000 256.000000"
 preserveAspectRatio="xMidYMid meet">
<metadata>
Created by potrace 1.11, written by Peter Selinger 2001-2013
</metadata>
<g transform="translate(0.000000,256.000000) scale(0.100000,-0.100000)"
fill="#000000" stroke="none">
<path d="M1127 2179 c7 -7 15 -10 18 -7 3 3 -2 9 -12 12 -14 6 -15 5 -6 -5z"/>
<path d="M1248 2159 c8 -10 11 -22 8 -27 -3 -5 1 -9 9 -10 8 -1 22 -3 30 -4
20 -2 19 -14 -1 -22 -8 -3 -12 -2 -9 4 3 6 1 10 -4 10 -6 0 -11 -4 -11 -10 0
-5 -5 -10 -11 -10 -5 0 -8 4 -4 9 3 6 -3 14 -12 20 -11 6 -13 11 -5 11 7 0 10
5 6 11 -4 8 -14 -1 -25 -22 -10 -19 -18 -28 -19 -21 0 9 -5 10 -19 3 -14 -8
-22 -7 -30 3 -9 10 -4 12 25 11 19 -2 33 0 30 3 -3 3 -1 11 6 19 6 7 8 16 4
20 -3 3 -6 1 -6 -6 0 -7 -4 -10 -9 -7 -4 3 -16 -1 -27 -8 -15 -12 -22 -11 -44
1 -22 14 -23 14 -7 0 14 -11 15 -17 6 -23 -7 -4 -15 -2 -17 4 -2 7 -8 12 -13
12 -6 0 -7 -4 -4 -10 8 -13 -8 -13 -23 0 -6 6 -10 7 -7 4 3 -4 0 -13 -6 -21
-6 -7 -9 -22 -6 -33 3 -13 1 -18 -5 -13 -6 3 -17 -2 -25 -12 -7 -11 -13 -13
-13 -7 0 7 -5 12 -11 12 -6 0 -9 -7 -6 -15 4 -8 1 -17 -5 -21 -6 -4 -8 -3 -5
3 4 6 -5 15 -19 22 -31 14 -34 14 -34 0 0 -5 4 -8 9 -5 5 3 14 -1 20 -8 8 -9
8 -16 2 -20 -5 -3 -19 6 -30 20 -13 17 -21 21 -21 12 0 -8 3 -18 7 -22 4 -3 8
-13 9 -22 2 -12 -1 -13 -11 -4 -10 8 -16 7 -24 -7 -9 -16 -12 -16 -21 -3 -8
13 -14 8 -12 -11 1 -9 -36 -4 -45 6 -5 4 -2 5 6 0 9 -5 12 -4 7 3 -7 12 -36 5
-36 -8 0 -5 -15 -7 -32 -5 l-33 4 25 -14 c21 -11 27 -11 41 1 15 13 17 13 22
0 4 -10 1 -13 -9 -9 -7 3 -14 1 -14 -4 0 -13 -53 -41 -67 -36 -7 3 -16 -3 -20
-13 -9 -24 -40 -54 -48 -46 -3 4 -3 -1 1 -11 5 -13 2 -16 -12 -11 -15 5 -16 4
-4 -4 10 -8 19 -7 29 1 12 9 13 9 7 0 -4 -7 -2 -13 3 -13 6 0 11 -5 11 -11 0
-6 -5 -7 -12 -2 -19 11 -58 11 -65 0 -3 -6 -1 -7 5 -3 7 4 12 2 12 -3 0 -6 5
-11 11 -11 5 0 7 4 4 10 -3 6 1 7 9 4 32 -12 15 -23 -31 -20 -27 2 -40 1 -30
-1 9 -3 17 -9 17 -14 0 -6 5 -7 10 -4 6 4 10 3 9 -2 -4 -21 2 -24 19 -12 15
13 16 12 3 -3 -10 -13 -18 -15 -31 -8 -26 14 -25 14 -28 -21 -2 -22 1 -29 10
-24 7 4 5 0 -5 -8 -10 -9 -18 -18 -18 -21 1 -3 -1 -6 -4 -6 -3 0 -8 0 -12 0
-4 0 -2 5 5 12 15 15 15 28 1 28 -5 0 -7 -4 -4 -10 3 -5 1 -10 -5 -10 -7 0
-10 -7 -7 -15 4 -8 2 -17 -3 -20 -6 -4 -10 -1 -10 5 0 6 -5 8 -11 5 -6 -5 -4
-11 7 -19 16 -12 15 -14 -7 -29 -13 -10 -18 -17 -11 -17 7 0 10 -5 7 -10 -4
-6 -11 -8 -16 -5 -5 4 -9 2 -9 -3 0 -6 7 -13 16 -16 8 -3 12 -11 9 -16 -5 -7
-11 -8 -19 -1 -8 7 -12 5 -12 -8 0 -11 7 -17 21 -15 11 1 19 7 18 13 -2 6 2
11 7 11 6 0 10 -5 10 -11 0 -8 6 -7 18 2 15 13 16 12 3 -3 -7 -10 -17 -16 -21
-13 -5 3 -11 1 -15 -5 -6 -9 8 -14 28 -11 5 1 6 -3 2 -8 -3 -6 -12 -8 -21 -4
-16 6 -16 -16 1 -30 6 -5 3 -7 -7 -3 -21 6 -22 2 -8 -25 10 -17 8 -18 -16 -9
-28 11 -44 6 -43 -13 0 -9 2 -9 6 1 2 6 9 12 14 12 6 0 8 -4 4 -9 -3 -5 0 -13
6 -17 8 -5 9 -3 4 6 -5 8 -4 11 3 6 6 -3 9 -17 6 -31 -2 -13 0 -27 6 -30 5 -3
10 -10 10 -16 0 -5 -8 -1 -18 9 -12 10 -15 21 -10 28 5 7 3 14 -6 17 -10 4
-13 1 -9 -9 3 -8 -1 -14 -8 -14 -8 0 -5 -6 7 -15 22 -17 12 -20 -16 -5 -16 9
-18 8 -13 -6 5 -13 3 -15 -8 -10 -8 4 2 -7 21 -25 19 -18 27 -30 17 -26 -9 3
-17 2 -17 -3 0 -6 6 -10 13 -10 17 -1 -24 -24 -43 -25 -8 0 -15 -7 -16 -15 0
-8 -2 -17 -3 -20 -7 -15 -6 -48 1 -44 4 3 8 0 8 -5 0 -6 5 -11 11 -11 8 0 9 4
0 13 -6 8 -8 17 -4 20 3 4 1 7 -7 7 -10 0 -10 3 0 15 6 8 8 20 4 27 -5 9 -4
10 4 3 6 -6 13 -20 15 -32 1 -11 8 -27 14 -35 12 -15 28 -59 25 -70 -2 -7 13
-12 30 -9 8 1 5 -20 -6 -38 -7 -11 -5 -13 7 -8 10 3 17 2 17 -3 0 -6 -7 -10
-16 -10 -8 0 -13 -4 -9 -10 3 -5 13 -6 23 -3 13 4 13 2 -3 -10 -29 -24 -32
-21 -30 26 1 33 -3 45 -19 54 -15 9 -17 12 -6 13 13 0 13 1 0 10 -8 5 -19 10
-25 10 -5 0 -4 -4 3 -9 8 -4 13 -11 13 -15 -3 -20 0 -26 9 -21 6 3 10 1 10 -4
0 -6 -6 -11 -12 -11 -9 0 -8 -3 2 -10 8 -5 14 -24 15 -44 0 -19 4 -38 9 -43 5
-5 6 -3 2 5 -4 6 -3 12 3 12 6 0 15 -9 21 -20 10 -19 9 -20 -16 -16 -14 3 -23
2 -19 -2 6 -7 10 -8 36 -11 5 0 7 -6 3 -13 -4 -7 7 -1 25 11 32 23 32 23 20 2
-8 -11 -17 -21 -22 -21 -4 0 -5 -5 -2 -11 5 -6 12 -4 20 7 7 10 20 19 29 20
13 2 14 -1 7 -10 -6 -7 -8 -16 -4 -19 3 -4 1 -7 -6 -7 -7 0 -10 -4 -6 -10 3
-5 11 -8 18 -6 7 1 9 1 5 -1 -5 -3 -8 -9 -8 -14 0 -6 5 -7 11 -3 7 4 6 -2 -1
-17 -8 -14 -9 -24 -3 -26 6 -2 19 -11 29 -19 19 -15 18 -15 -1 -9 -16 5 -18 4
-7 -6 10 -11 16 -10 30 5 9 11 11 15 3 11 -10 -6 -12 -4 -6 5 6 9 4 11 -5 5
-9 -6 -11 -4 -6 4 6 9 12 9 25 -3 10 -9 21 -13 26 -9 4 5 5 3 2 -3 -4 -7 0
-15 9 -18 8 -3 12 -10 9 -16 -5 -9 7 -14 27 -12 3 1 8 -4 11 -12 3 -8 -2 -12
-16 -10 -12 1 -26 3 -30 3 -5 1 -5 6 -1 13 5 7 3 8 -7 3 -12 -7 -12 -6 -1 7
11 13 9 16 -13 16 -14 0 -25 -5 -25 -10 0 -5 4 -7 8 -4 11 6 45 -51 37 -63 -3
-5 -1 -12 4 -15 5 -4 8 4 7 17 -2 20 1 23 21 19 12 -2 23 -8 23 -13 0 -5 -6
-7 -12 -5 -7 1 -10 1 -5 -1 4 -3 4 -10 0 -16 -5 -8 -2 -8 9 0 8 7 18 10 21 6
4 -3 -1 -12 -11 -20 -15 -13 -14 -13 7 -3 19 10 25 9 32 -1 5 -8 9 -17 9 -20
0 -4 9 -9 19 -12 14 -3 18 -1 14 9 -3 8 -9 12 -14 9 -4 -3 -15 7 -23 22 -8 15
-18 27 -22 25 -5 -2 -10 2 -12 10 -3 11 -2 11 6 0 5 -8 12 -13 16 -13 3 1 8 0
11 0 3 -1 9 -2 14 -3 5 0 13 -5 18 -10 5 -5 3 -6 -4 -2 -8 4 -13 1 -13 -8 0
-9 3 -15 8 -14 4 2 18 -5 32 -15 13 -9 18 -17 11 -17 -8 0 -11 -3 -8 -7 4 -3
16 2 27 12 16 15 23 16 33 6 9 -10 8 -11 -7 -5 -15 6 -17 4 -11 -6 6 -9 4 -11
-5 -5 -8 5 -11 4 -7 -2 4 -6 18 -8 32 -6 14 3 22 10 18 16 -3 6 -1 7 5 3 19
-11 14 -24 -10 -29 l-23 -4 23 -2 c12 0 22 -5 22 -10 0 -6 -9 -8 -19 -6 -23 4
-23 -27 0 -33 11 -3 11 -1 -1 7 -8 6 -12 11 -7 12 4 1 10 2 15 3 4 1 13 5 20
10 12 7 12 4 2 -15 l-13 -24 22 19 c16 15 24 17 33 8 18 -18 33 -15 18 3 -7 9
-11 18 -8 21 3 2 13 -7 22 -21 15 -22 15 -29 4 -43 -10 -12 -10 -14 0 -8 7 4
15 1 18 -8 3 -9 10 -13 16 -10 5 3 1 12 -9 19 -17 13 -17 14 4 12 24 -1 37
-22 26 -40 -3 -7 -2 -8 3 -4 5 5 9 19 9 32 1 17 -4 22 -17 20 -21 -4 -33 11
-17 21 6 3 15 0 20 -7 5 -8 9 -10 9 -5 0 6 5 5 12 -2 9 -9 15 -9 27 1 12 9 13
9 7 -1 -5 -8 0 -12 15 -12 22 0 22 0 3 22 -12 13 -13 18 -4 13 22 -14 40 -15
40 -2 0 5 3 7 6 4 4 -4 1 -13 -6 -22 -8 -9 -8 -15 -2 -15 6 0 18 10 27 23 14
19 16 19 13 3 -2 -12 4 -20 15 -21 9 -2 17 0 17 5 0 4 11 8 25 8 14 0 25 -4
25 -9 0 -4 -9 -6 -20 -4 -11 2 -18 1 -16 -4 7 -10 -48 -9 -55 1 -3 5 -14 -3
-23 -17 -10 -15 -15 -29 -12 -33 3 -3 6 0 6 7 0 7 5 9 12 5 6 -4 8 -3 4 4 -3
6 -2 13 4 17 5 3 10 1 10 -6 0 -9 3 -9 14 0 12 10 17 8 25 -7 6 -11 7 -23 3
-27 -4 -5 -2 -5 5 -1 7 4 10 13 7 20 -5 14 10 29 34 32 6 1 12 -2 12 -8 0 -6
6 -8 14 -5 21 8 28 -4 13 -22 -10 -14 -10 -14 5 -3 17 13 18 36 3 49 -4 4 -5
3 -2 -4 5 -7 1 -10 -10 -9 -9 2 -18 14 -20 27 -2 18 -1 21 7 9 5 -8 19 -15 32
-15 17 0 22 -6 23 -27 0 -14 3 -30 7 -33 4 -4 5 4 3 17 -4 22 -1 25 24 23 21
-1 28 2 24 12 -4 10 -9 11 -16 4 -15 -15 -24 -14 -31 5 -5 13 -4 14 7 5 11 -8
18 -7 31 7 9 10 14 21 11 24 -3 2 2 5 10 5 8 0 15 -4 15 -9 0 -4 -5 -8 -11 -8
-8 0 -8 -4 0 -14 6 -7 9 -21 5 -30 -3 -9 -2 -16 4 -16 5 0 9 12 8 28 0 18 4
26 13 24 9 -2 11 3 7 14 -5 14 -4 15 9 4 12 -10 13 -15 3 -21 -6 -4 -16 -5
-20 -3 -4 3 -5 -3 -1 -12 4 -11 8 -13 11 -6 2 7 8 12 13 12 6 0 8 -4 5 -8 -3
-5 1 -9 9 -9 8 0 13 3 10 5 -7 7 45 53 54 48 4 -3 8 1 8 9 0 11 -5 11 -26 -2
-24 -14 -25 -14 -7 1 17 14 17 16 4 16 -9 0 -20 4 -23 10 -4 7 3 7 19 0 14 -5
26 -6 26 -2 0 4 8 -2 16 -13 15 -19 15 -19 9 8 -6 22 -4 26 9 21 9 -3 13 -10
10 -15 -3 -5 2 -6 10 -3 21 8 20 18 -1 35 -14 12 -16 12 -8 0 5 -10 4 -12 -3
-7 -7 4 -12 12 -12 17 0 14 33 7 46 -10 6 -7 19 -11 30 -8 17 4 16 5 -3 6 -22
1 -34 31 -13 31 5 0 7 8 4 18 -5 14 -4 15 5 2 9 -13 11 -13 11 -1 0 11 4 10
16 -5 8 -10 13 -14 10 -8 -8 17 19 25 35 11 11 -10 11 -9 1 5 -8 10 -9 19 -3
22 5 3 12 1 14 -4 3 -6 4 -5 3 1 -1 7 -10 13 -19 15 -9 1 -15 -2 -12 -6 9 -15
-14 -22 -32 -10 -16 9 -15 10 5 5 12 -4 21 -3 20 2 -2 4 2 10 7 12 6 3 18 14
28 25 10 12 16 16 13 10 -3 -7 1 -14 9 -17 10 -4 12 -1 8 11 -11 32 -15 33
-36 15 l-22 -18 20 23 20 24 21 -27 21 -26 -5 30 c-2 17 -7 29 -11 26 -4 -2
-8 2 -8 9 0 8 7 12 15 8 11 -4 13 -2 7 9 -7 11 -6 12 6 2 13 -10 23 -9 55 7
21 12 29 18 17 15 -28 -8 -30 6 -3 23 15 9 20 9 20 0 0 -6 2 -9 5 -6 9 8 -6
38 -16 32 -5 -3 -9 0 -9 5 0 14 17 14 25 0 7 -11 42 30 37 44 -1 4 3 7 8 7 6
0 10 -4 10 -10 0 -5 5 -10 11 -10 8 0 8 4 0 14 -7 9 -8 17 -2 20 5 3 12 0 14
-6 3 -7 4 3 1 22 -3 27 -2 31 5 15 9 -20 10 -20 10 1 1 27 -9 36 -25 23 -8 -7
-14 -6 -20 2 -4 7 -3 9 4 5 6 -3 13 -2 17 4 4 6 11 8 16 5 5 -4 9 -1 9 4 0 10
-14 15 -33 12 -5 -1 -6 3 -2 9 4 7 12 7 25 0 11 -6 21 -6 24 -1 4 5 0 11 -6
14 -10 3 -10 8 1 18 8 8 11 9 7 2 -8 -14 31 -5 40 9 4 6 -2 8 -14 4 -11 -4
-23 -2 -27 5 -6 8 -10 7 -16 -2 -7 -11 -9 -10 -9 4 0 9 4 17 10 17 12 0 9 22
-5 32 -6 5 -5 8 3 8 7 0 10 5 7 10 -4 6 -11 7 -17 4 -7 -4 -8 -2 -4 5 4 6 12
9 17 6 5 -4 9 1 9 10 0 10 -5 13 -12 9 -7 -4 -8 -3 -4 4 7 11 -6 17 -27 13 -5
-1 -6 3 -2 9 4 7 12 7 25 0 10 -5 20 -7 23 -2 2 4 2 0 0 -8 -3 -11 -1 -12 8
-3 13 13 3 37 -12 28 -5 -4 -9 -1 -9 5 0 6 -5 8 -12 4 -7 -4 -8 -3 -4 5 4 6
12 9 17 6 5 -4 9 1 9 10 0 10 -5 13 -12 9 -6 -4 -8 -3 -4 4 3 5 0 12 -6 15 -7
3 -3 4 9 4 12 -1 19 -5 17 -9 -3 -4 3 -5 12 -1 11 4 13 8 6 11 -7 2 -12 12
-12 23 0 13 -5 17 -17 12 -10 -3 -15 -3 -11 1 3 4 14 9 24 10 20 3 32 26 14
26 -6 0 -9 -3 -7 -7 3 -5 -7 -9 -21 -10 -25 -1 -25 0 -7 10 25 15 30 36 11 43
-12 5 -13 9 -3 25 6 10 19 19 27 19 12 -1 11 -3 -2 -11 -10 -5 -18 -15 -18
-22 0 -8 3 -8 9 2 6 9 11 10 15 2 4 -6 3 -11 -2 -11 -5 0 -9 -7 -9 -16 0 -14
2 -14 14 2 8 11 19 18 24 16 6 -1 8 2 4 8 -3 6 -11 8 -16 4 -13 -8 -7 29 6 38
5 4 -3 6 -18 4 -15 -1 -30 -6 -34 -9 -3 -4 -11 -7 -17 -7 -6 0 -3 5 7 11 10 6
14 15 10 22 -4 8 -1 7 9 -1 11 -9 18 -10 23 -2 3 6 10 8 14 6 4 -3 8 1 8 9 0
13 -4 12 -19 -2 -15 -14 -18 -14 -18 -1 0 8 10 20 23 26 l22 10 -22 -1 c-13
-1 -23 -4 -23 -7 0 -3 -8 -10 -18 -17 -15 -9 -19 -8 -19 3 0 7 4 11 8 8 4 -2
13 5 19 16 6 11 15 18 19 16 4 -3 8 1 8 9 0 8 -5 13 -11 12 -6 -1 -10 4 -9 11
2 6 -1 12 -6 12 -5 0 -11 -6 -14 -12 -2 -7 -8 -10 -12 -6 -4 4 -3 13 2 20 12
15 13 49 2 42 -5 -2 -6 -10 -3 -17 3 -8 -3 -13 -15 -13 -11 0 -17 5 -14 10 4
5 -1 7 -10 3 -10 -4 -17 -2 -17 4 0 6 9 9 20 6 17 -4 18 -2 9 14 -5 10 -12 19
-15 19 -3 0 -3 -4 0 -8 3 -5 -1 -9 -8 -9 -8 0 -13 7 -11 16 3 19 25 16 43 -6
7 -11 12 -12 12 -4 0 7 5 9 12 5 7 -4 8 -3 4 5 -4 6 -11 9 -16 6 -5 -3 -14 3
-19 14 -15 27 -40 51 -54 51 -8 0 -8 -3 1 -9 11 -6 10 -10 -4 -15 -9 -3 -19
-4 -22 -1 -3 3 -1 5 4 5 5 0 10 10 11 22 1 11 8 25 15 31 10 6 9 7 -4 4 -9 -3
-22 1 -28 8 -7 8 -16 12 -21 9 -19 -11 -49 -13 -43 -2 5 8 1 9 -9 5 -16 -6
-16 -5 -1 19 20 30 14 38 -38 43 -5 1 -8 8 -8 16 0 8 -4 15 -8 15 -5 0 -9 -6
-9 -14 0 -15 44 -41 62 -38 6 1 1 -5 -9 -13 -11 -8 -25 -15 -30 -14 -6 0 -5 3
2 6 6 2 12 9 12 14 0 6 -4 7 -10 4 -5 -3 -10 -1 -10 6 0 7 -3 9 -7 6 -3 -4
-13 2 -21 14 -8 11 -28 29 -46 40 -17 10 -25 19 -17 19 7 0 11 6 8 14 -4 10
-1 13 9 9 11 -4 12 -9 3 -19 -8 -10 -8 -14 0 -14 6 0 11 5 11 11 0 5 5 7 11 3
8 -5 8 -8 0 -14 -9 -5 -7 -11 5 -21 16 -12 17 -12 11 4 -6 15 -3 17 13 12 12
-4 20 -2 20 5 0 6 -4 9 -9 6 -5 -4 -23 5 -39 19 -33 28 -48 31 -55 13 -3 -7
-4 -3 -4 9 1 12 5 19 11 16 5 -3 6 -1 2 6 -5 8 -12 9 -20 2 -9 -7 -19 -6 -33
4 -12 8 -30 12 -40 9 -17 -5 -17 -5 0 6 13 8 22 8 38 -4 18 -12 24 -13 35 -1
19 18 18 31 -1 15 -22 -19 -41 -7 -21 13 10 9 12 17 6 17 -6 0 -13 -7 -16 -15
-4 -8 -10 -13 -15 -10 -12 8 -60 -6 -54 -15 3 -5 0 -12 -6 -16 -7 -4 -9 -3 -5
4 3 6 2 13 -4 17 -5 3 -10 1 -10 -5 0 -6 -5 -8 -11 -5 -16 10 1 20 44 24 4 1
7 6 7 13 0 9 -3 9 -12 0 -9 -9 -18 -7 -37 11 l-26 22 19 -22 c16 -20 17 -23 3
-23 -9 0 -19 9 -22 21 -4 11 -11 19 -17 17 -10 -4 -12 -19 -2 -17 10 1 23 -24
18 -33 -3 -4 -11 -8 -17 -8 -7 0 -6 4 3 10 16 10 10 13 -32 13 -10 0 -15 4
-12 8 3 5 0 9 -5 9 -6 0 -11 5 -11 11 0 8 4 8 14 0 11 -9 15 -8 20 5 9 24 7
31 -4 14 -9 -13 -13 -11 -30 9 -11 13 -24 21 -27 17 -4 -4 -2 -11 5 -15 10 -6
10 -11 -3 -21 -13 -11 -15 -10 -10 2 4 11 -2 18 -22 23 -40 12 -47 12 -55 0
-5 -6 -8 -4 -8 5 0 13 -1 13 -10 0 -5 -8 -10 -10 -10 -4 0 5 7 19 16 30 11 13
14 14 11 3 -3 -9 1 -16 9 -16 17 0 18 9 2 25 -9 9 -16 8 -30 -4 -16 -15 -18
-15 -24 0 -3 9 -10 16 -16 16 -5 0 -6 -4 -3 -10 11 -18 -6 -10 -28 13 -12 13
-16 15 -9 6z m-53 -29 c-3 -5 -12 -10 -18 -10 -7 0 -6 4 3 10 19 12 23 12 15
0z m-105 -41 c0 -6 -4 -7 -10 -4 -5 3 -10 1 -10 -6 0 -7 -2 -10 -5 -7 -9 8 6
38 16 32 5 -3 9 -10 9 -15z m44 10 c-2 -4 -1 -9 3 -12 5 -2 2 -2 -6 0 -8 2
-18 -2 -22 -9 -6 -9 -8 -6 -7 7 1 12 9 21 19 21 10 0 16 -3 13 -7z m256 -19
c0 -5 -2 -10 -4 -10 -3 0 -8 5 -11 10 -3 6 -1 10 4 10 6 0 11 -4 11 -10z
m-303 -25 c0 -8 -4 -12 -9 -9 -5 3 -6 10 -3 15 9 13 12 11 12 -6z m-363 -185
c-6 -6 -10 -3 -10 10 0 13 4 16 10 10 7 -7 7 -13 0 -20z m1046 -4 c0 -3 -4 -8
-10 -11 -5 -3 -10 -1 -10 4 0 6 5 11 10 11 6 0 10 -2 10 -4z m-1073 -28 c2
-17 0 -19 -7 -8 -5 8 -6 18 -4 22 8 12 10 10 11 -14z m1088 2 c3 -5 1 -10 -4
-10 -6 0 -11 5 -11 10 0 6 2 10 4 10 3 0 8 -4 11 -10z m144 -58 c15 -28 -2
-48 -23 -27 -13 13 -14 20 -5 31 15 18 16 18 28 -4z m59 -64 c8 -10 3 -13 -19
-14 -26 -1 -27 0 -11 12 9 7 18 14 18 14 1 0 6 -6 12 -12z m-1364 -14 c3 -8 2
-12 -4 -9 -6 3 -10 10 -10 16 0 14 7 11 14 -7z m-59 -91 c-5 -10 -8 -26 -9
-35 0 -9 -4 -14 -8 -12 -4 3 -8 0 -8 -5 0 -6 5 -11 12 -11 6 0 9 -2 6 -5 -3
-3 -13 -3 -22 1 -13 5 -14 9 -5 20 6 8 8 14 5 14 -4 0 0 7 8 16 9 8 14 20 11
25 -4 5 -1 9 5 9 8 0 9 -7 5 -17z m1457 -5 c-14 -14 -44 -20 -36 -7 3 5 9 7
14 4 5 -3 11 -1 15 5 3 5 9 10 13 10 3 0 1 -5 -6 -12z m47 -27 c7 -2 -22 -31
-30 -31 -5 0 -9 7 -9 16 0 9 -5 12 -12 8 -6 -4 -8 -3 -5 3 5 8 30 10 56 4z
m-1524 -201 c3 -5 1 -10 -4 -10 -6 0 -11 5 -11 10 0 6 2 10 4 10 3 0 8 -4 11
-10z m-47 -73 c13 4 14 3 6 -6 -13 -14 -47 -3 -37 12 5 8 8 8 10 0 3 -7 12 -9
21 -6z m32 -21 c0 -3 -4 -8 -10 -11 -5 -3 -10 -1 -10 4 0 6 5 11 10 11 6 0 10
-2 10 -4z m1486 -301 c-1 -8 -6 -18 -11 -22 -4 -4 -5 -2 -1 5 4 7 2 12 -6 12
-9 0 -9 3 2 10 19 12 19 13 16 -5z m-1459 -17 c12 -21 12 -36 -2 -48 -10 -8
-13 -7 -11 4 1 9 5 18 9 22 8 9 -1 24 -14 24 -6 0 -7 -5 -3 -12 4 -7 3 -8 -5
-4 -12 8 -6 26 9 26 5 0 12 -6 17 -12z m1431 -15 c-5 -31 -25 -46 -45 -33 -16
10 -16 11 -1 6 20 -6 34 10 16 17 -8 3 -6 6 5 6 10 1 15 6 12 11 -3 6 -1 10 5
10 6 0 10 -8 8 -17z m-58 -78 c0 -2 -9 -3 -19 -2 -11 0 -18 5 -15 9 4 6 34 0
34 -7z m-38 -39 c7 4 8 2 4 -5 -9 -13 -26 -5 -25 12 0 9 2 8 6 -1 2 -6 10 -9
15 -6z m-1245 -26 c2 -20 -8 -26 -20 -13 -4 3 -2 12 4 20 15 17 14 17 16 -7z
m47 -5 c11 -8 16 -15 10 -15 -5 0 -18 7 -28 15 -11 8 -16 15 -10 15 5 0 18 -7
28 -15z m996 -135 c0 -5 -5 -10 -11 -10 -5 0 -7 5 -4 10 3 6 8 10 11 10 2 0 4
-4 4 -10z m-780 -29 c0 -6 -4 -12 -8 -15 -5 -3 -9 1 -9 9 0 8 4 15 9 15 4 0 8
-4 8 -9z m659 -97 c-14 -16 -23 -19 -14 -3 4 5 -1 20 -12 31 l-18 21 28 -18
c21 -14 25 -20 16 -31z m-488 3 c-10 -9 -11 -8 -5 6 3 10 9 15 12 12 3 -3 0
-11 -7 -18z m69 -7 c0 -5 -2 -10 -4 -10 -3 0 -8 5 -11 10 -3 6 -1 10 4 10 6 0
11 -4 11 -10z"/>
<path d="M1905 1770 c3 -5 11 -10 16 -10 6 0 7 5 4 10 -3 6 -11 10 -16 10 -6
0 -7 -4 -4 -10z"/>
<path d="M1155 2150 c-3 -6 1 -7 9 -4 18 7 21 14 7 14 -6 0 -13 -4 -16 -10z"/>
<path d="M1376 2139 c2 -4 13 -7 24 -6 23 2 17 10 -10 12 -10 1 -17 -2 -14 -6z"/>
<path d="M1515 2129 c-4 -6 -5 -12 -2 -15 2 -3 7 2 10 11 7 17 1 20 -8 4z"/>
<path d="M1035 2109 c-4 -6 -5 -12 -2 -15 2 -3 7 2 10 11 7 17 1 20 -8 4z"/>
<path d="M975 2100 c-3 -5 -1 -10 4 -10 6 0 11 5 11 10 0 6 -2 10 -4 10 -3 0
-8 -4 -11 -10z"/>
<path d="M1470 2099 c0 -5 5 -7 10 -4 6 3 10 8 10 11 0 2 -4 4 -10 4 -5 0 -10
-5 -10 -11z"/>
<path d="M1004 2082 c2 -4 -4 -13 -14 -20 -12 -7 -21 -8 -25 -2 -3 6 -1 10 6
10 7 0 10 2 7 5 -3 3 -13 3 -22 -1 -15 -6 -15 -7 1 -19 12 -9 22 -10 30 -3 7
5 16 7 21 4 6 -3 16 2 23 11 10 12 10 14 2 9 -7 -4 -13 -2 -13 3 0 6 -5 11
-11 11 -5 0 -8 -4 -5 -8z"/>
<path d="M1595 2070 c-4 -6 -11 -7 -17 -4 -7 4 -8 2 -4 -5 6 -9 11 -9 22 0 14
11 18 19 10 19 -3 0 -8 -5 -11 -10z"/>
<path d="M856 2031 c-4 -5 4 -7 16 -4 18 4 20 3 12 -6 -15 -17 -47 -21 -56 -7
-11 16 -9 -6 1 -23 7 -12 13 -12 24 -3 7 7 17 9 20 5 4 -3 13 -1 20 5 8 7 18
8 23 4 5 -4 0 3 -10 16 -20 23 -41 29 -50 13z"/>
<path d="M1739 1993 c-13 -17 -13 -17 6 -3 11 8 22 16 24 17 2 2 0 3 -6 3 -6
0 -17 -8 -24 -17z"/>
<path d="M695 1940 c-3 -5 -3 -10 2 -10 4 0 1 -5 -7 -11 -12 -8 -12 -10 -1 -7
8 2 15 12 17 21 3 19 -2 22 -11 7z"/>
<path d="M724 1939 c-5 -8 -3 -9 6 -4 10 6 12 4 7 -9 -6 -14 -3 -15 13 -6 11
6 20 14 20 17 0 3 -3 3 -7 0 -3 -4 -12 -2 -19 4 -8 7 -14 6 -20 -2z"/>
<path d="M658 1898 c5 -5 16 -8 23 -6 8 3 3 7 -10 11 -17 4 -21 3 -13 -5z"/>
<path d="M1826 1897 c3 -10 9 -15 12 -12 3 3 0 11 -7 18 -10 9 -11 8 -5 -6z"/>
<path d="M1877 1836 c-11 -27 7 -41 24 -20 8 10 9 15 2 11 -7 -4 -13 0 -15 10
-3 16 -4 16 -11 -1z"/>
<path d="M1995 1789 c-4 -6 -5 -12 -2 -15 2 -3 7 2 10 11 7 17 1 20 -8 4z"/>
<path d="M2106 1638 c3 -5 10 -6 15 -3 13 9 11 12 -6 12 -8 0 -12 -4 -9 -9z"/>
<path d="M496 1481 c-4 -5 3 -7 14 -4 23 6 26 13 6 13 -8 0 -17 -4 -20 -9z"/>
<path d="M510 1459 c0 -5 -4 -8 -8 -5 -5 3 -9 -1 -9 -9 0 -8 7 -17 14 -19 8
-3 11 -1 8 5 -4 5 -1 16 5 24 9 11 9 15 1 15 -6 0 -11 -5 -11 -11z"/>
<path d="M2100 1402 c0 -5 7 -9 15 -9 8 0 15 4 15 9 0 4 -7 8 -15 8 -8 0 -15
-4 -15 -8z"/>
<path d="M446 1358 c3 -5 10 -6 15 -3 13 9 11 12 -6 12 -8 0 -12 -4 -9 -9z"/>
<path d="M2100 1362 c0 -5 7 -9 15 -9 8 0 12 4 9 9 -3 4 -9 8 -15 8 -5 0 -9
-4 -9 -8z"/>
<path d="M400 1340 c-12 -7 -10 -9 7 -7 12 0 19 5 17 9 -6 10 -6 10 -24 -2z"/>
<path d="M420 1296 c0 -2 7 -7 16 -10 8 -3 12 -2 9 4 -6 10 -25 14 -25 6z"/>
<path d="M2090 1291 c0 -7 -4 -9 -10 -6 -5 3 -10 1 -10 -4 0 -6 4 -11 9 -11
13 0 25 20 17 27 -3 4 -6 1 -6 -6z"/>
<path d="M443 1270 c-13 -5 -23 -7 -23 -3 0 3 -7 0 -15 -7 -16 -13 -11 -30 8
-30 7 0 6 4 -3 10 -8 5 -13 10 -10 11 3 0 15 2 27 5 13 2 22 0 20 -5 -1 -5 2
-11 7 -12 5 -2 10 6 11 19 1 12 1 22 1 21 -1 0 -11 -4 -23 -9z"/>
<path d="M2090 1241 c0 -11 4 -22 9 -25 4 -3 6 6 3 19 -5 30 -12 33 -12 6z"/>
<path d="M2069 1200 c-4 -30 -5 -76 -2 -82 5 -9 43 14 43 26 0 4 -6 3 -14 -3
-9 -7 -17 -8 -20 -3 -3 6 1 12 9 16 8 3 15 11 14 18 0 10 -2 10 -6 1 -7 -18
-20 -16 -20 2 0 8 4 15 9 15 4 0 8 5 8 10 0 6 -4 10 -10 10 -5 0 -11 -4 -11
-10z"/>
<path d="M370 1179 c0 -5 5 -7 10 -4 6 3 10 8 10 11 0 2 -4 4 -10 4 -5 0 -10
-5 -10 -11z"/>
<path d="M2110 1179 c0 -5 5 -7 10 -4 6 3 10 8 10 11 0 2 -4 4 -10 4 -5 0 -10
-5 -10 -11z"/>
<path d="M447 1150 c9 -9 9 -17 3 -26 -8 -8 -5 -13 9 -17 14 -3 17 0 14 14 -3
10 -13 24 -22 31 -13 10 -14 10 -4 -2z"/>
<path d="M406 1122 c-3 -5 1 -9 9 -9 8 0 12 4 9 9 -3 4 -7 8 -9 8 -2 0 -6 -4
-9 -8z"/>
<path d="M2119 1093 c-13 -16 -12 -17 4 -4 16 13 21 21 13 21 -2 0 -10 -8 -17
-17z"/>
<path d="M435 1060 c3 -5 8 -10 11 -10 2 0 4 5 4 10 0 6 -5 10 -11 10 -5 0 -7
-4 -4 -10z"/>
<path d="M2061 1041 c-15 -28 11 -48 30 -24 13 16 12 17 -3 5 -9 -8 -19 -9
-22 -4 -3 6 1 12 9 16 8 3 15 10 15 16 0 17 -19 11 -29 -9z"/>
<path d="M2097 995 c-4 -8 -3 -16 1 -19 4 -3 9 4 9 15 2 23 -3 25 -10 4z"/>
<path d="M2050 962 c0 -5 7 -9 15 -9 8 0 12 4 9 9 -3 4 -9 8 -15 8 -5 0 -9 -4
-9 -8z"/>
<path d="M1996 898 c3 -4 11 -5 19 -1 21 7 19 12 -4 10 -11 0 -18 -5 -15 -9z"/>
<path d="M579 879 c-8 -17 -8 -23 1 -29 7 -4 9 -13 5 -20 -6 -9 -9 -10 -15 0
-5 9 -9 9 -14 1 -4 -6 -2 -12 3 -12 6 -1 17 -2 24 -3 23 -4 28 6 14 28 -10 15
-12 27 -5 39 5 9 7 17 4 17 -3 0 -10 -10 -17 -21z"/>
<path d="M1860 801 c0 -5 7 -12 16 -15 14 -5 15 -4 4 9 -14 17 -20 19 -20 6z"/>
<path d="M1907 799 c7 -7 15 -10 18 -7 3 3 -2 9 -12 12 -14 6 -15 5 -6 -5z"/>
<path d="M610 746 c0 -2 7 -7 16 -10 8 -3 12 -2 9 4 -6 10 -25 14 -25 6z"/>
<path d="M1800 736 c0 -2 8 -10 18 -17 15 -13 16 -12 3 4 -13 16 -21 21 -21
13z"/>
<path d="M656 707 c3 -10 9 -15 12 -12 3 3 0 11 -7 18 -10 9 -11 8 -5 -6z"/>
<path d="M1720 655 c-11 -13 -10 -14 4 -9 9 3 16 10 16 15 0 13 -6 11 -20 -6z"/>
<path d="M753 605 c0 -8 4 -12 9 -9 5 3 6 10 3 15 -9 13 -12 11 -12 -6z"/>
<path d="M1707 599 c7 -7 15 -10 18 -7 3 3 -2 9 -12 12 -14 6 -15 5 -6 -5z"/>
<path d="M897 569 c7 -7 15 -10 18 -7 3 3 -2 9 -12 12 -14 6 -15 5 -6 -5z"/>
<path d="M1004 528 c-13 -20 -13 -38 -2 -38 6 0 8 7 5 15 -4 8 -2 17 3 20 6 4
10 1 10 -4 0 -15 27 -14 36 1 4 7 3 8 -5 4 -6 -4 -18 -3 -26 4 -10 8 -15 8
-21 -2z"/>
<path d="M1140 495 c5 -7 6 -16 2 -21 -4 -5 -3 -5 2 -1 15 12 15 34 0 34 -9 0
-11 -4 -4 -12z"/>
<path d="M1197 503 c-4 -3 -7 -13 -7 -22 1 -13 3 -13 11 2 11 19 8 33 -4 20z"/>
<path d="M1159 453 c-13 -16 -12 -17 4 -4 16 13 21 21 13 21 -2 0 -10 -8 -17
-17z"/>
</g>
</svg>
